<?xml version="1.0" encoding="UTF-8" standalone="no"?>
<!-- Created with Inkscape (http://www.inkscape.org/) -->

<svg
   width="72.979782mm"
   height="51.44384mm"
   viewBox="0 0 72.979782 51.44384"
   version="1.1"
   id="svg5"
   inkscape:version="1.2.2 (b0a8486541, 2022-12-01)"
   sodipodi:docname="drawing.svg"
   xmlns:inkscape="http://www.inkscape.org/namespaces/inkscape"
   xmlns:sodipodi="http://sodipodi.sourceforge.net/DTD/sodipodi-0.dtd"
   xmlns="http://www.w3.org/2000/svg"
   xmlns:svg="http://www.w3.org/2000/svg">
  <sodipodi:namedview
     id="namedview7"
     pagecolor="#ffffff"
     bordercolor="#000000"
     borderopacity="0.25"
     inkscape:showpageshadow="2"
     inkscape:pageopacity="0.0"
     inkscape:pagecheckerboard="0"
     inkscape:deskcolor="#d1d1d1"
     inkscape:document-units="mm"
     showgrid="false"
     inkscape:zoom="0.7042597"
     inkscape:cx="365.63216"
     inkscape:cy="276.17653"
     inkscape:window-width="1364"
     inkscape:window-height="750"
     inkscape:window-x="0"
     inkscape:window-y="16"
     inkscape:window-maximized="1"
     inkscape:current-layer="layer1" />
  <defs
     id="defs2" />
  <g
     inkscape:label="Layer 1"
     inkscape:groupmode="layer"
     id="layer1"
     transform="translate(-16.105684,-22.801931)">
    <rect
       style="fill:#000000;fill-opacity:0;stroke:#000000;stroke-width:0.284916"
       id="rect788"
       width="72.694862"
       height="51.158924"
       x="16.248142"
       y="22.944389" />
    <path
       style="fill:#000000;fill-opacity:0;stroke:#000000;stroke-width:0.3"
       id="path1362"
       sodipodi:type="arc"
       sodipodi:cx="33.154144"
       sodipodi:cy="44.025089"
       sodipodi:rx="1.2680397"
       sodipodi:ry="1.7738219"
       sodipodi:start="0.58093052"
       sodipodi:end="0.53756475"
       sodipodi:open="true"
       sodipodi:arc-type="arc"
       d="m 34.214165,44.998566 a 1.2680397,1.7738219 0 0 1 -1.744391,0.51982 1.2680397,1.7738219 0 0 1 -0.390489,-2.434395 1.2680397,1.7738219 0 0 1 1.735924,-0.572604 1.2680397,1.7738219 0 0 1 0.428128,2.42198" />
    <path
       style="fill:#000000;fill-opacity:0;stroke:#000000;stroke-width:0.3"
       id="path1472"
       sodipodi:type="arc"
       sodipodi:cx="54.844028"
       sodipodi:cy="51.423161"
       sodipodi:rx="1.2680397"
       sodipodi:ry="1.7738219"
       sodipodi:start="0.58093052"
       sodipodi:end="0.53756475"
       sodipodi:open="true"
       sodipodi:arc-type="arc"
       d="m 55.904049,52.396638 a 1.2680397,1.7738219 0 0 1 -1.74439,0.51982 1.2680397,1.7738219 0 0 1 -0.39049,-2.434396 1.2680397,1.7738219 0 0 1 1.735924,-0.572604 1.2680397,1.7738219 0 0 1 0.428129,2.421981" />
    <path
       style="fill:#000000;fill-opacity:0;stroke:#000000;stroke-width:0.3"
       id="path1474"
       sodipodi:type="arc"
       sodipodi:cx="65.041145"
       sodipodi:cy="41.596775"
       sodipodi:rx="1.2680397"
       sodipodi:ry="1.7738219"
       sodipodi:start="0.58093052"
       sodipodi:end="0.53756475"
       sodipodi:open="true"
       sodipodi:arc-type="arc"
       d="m 66.101166,42.570252 a 1.2680397,1.7738219 0 0 1 -1.744391,0.51982 1.2680397,1.7738219 0 0 1 -0.390489,-2.434396 1.2680397,1.7738219 0 0 1 1.735924,-0.572603 1.2680397,1.7738219 0 0 1 0.428128,2.42198" />
    <path
       style="fill:#000000;fill-opacity:0;stroke:#000000;stroke-width:0.3"
       id="path1476"
       sodipodi:type="arc"
       sodipodi:cx="42.746647"
       sodipodi:cy="34.012783"
       sodipodi:rx="1.2680397"
       sodipodi:ry="1.7738219"
       sodipodi:start="0.58093052"
       sodipodi:end="0.53756475"
       sodipodi:open="true"
       sodipodi:arc-type="arc"
       d="m 43.806668,34.98626 a 1.2680397,1.7738219 0 0 1 -1.744391,0.51982 1.2680397,1.7738219 0 0 1 -0.39049,-2.434396 1.2680397,1.7738219 0 0 1 1.735924,-0.572603 1.2680397,1.7738219 0 0 1 0.428129,2.42198" />
    <path
       style="fill:#000000;fill-opacity:0;stroke:#000000;stroke-width:0.3"
       id="path1480"
       sodipodi:type="arc"
       sodipodi:cx="33.154144"
       sodipodi:cy="44.025089"
       sodipodi:rx="1.2680397"
       sodipodi:ry="1.7738219"
       sodipodi:start="0.58093052"
       sodipodi:end="0.53756475"
       sodipodi:open="true"
       sodipodi:arc-type="arc"
       d="m 34.214165,44.998566 a 1.2680397,1.7738219 0 0 1 -1.744391,0.51982 1.2680397,1.7738219 0 0 1 -0.390489,-2.434395 1.2680397,1.7738219 0 0 1 1.735924,-0.572604 1.2680397,1.7738219 0 0 1 0.428128,2.42198" />
    <g
       id="g1496">
      <path
         style="fill:#000000;fill-opacity:0;stroke:#000000;stroke-width:0.3"
         id="path1478"
         sodipodi:type="arc"
         sodipodi:cx="35.979984"
         sodipodi:cy="55.341408"
         sodipodi:rx="1.2680397"
         sodipodi:ry="1.7738219"
         sodipodi:start="0.58093052"
         sodipodi:end="0.53756475"
         sodipodi:open="true"
         sodipodi:arc-type="arc"
         d="m 37.040005,56.314885 a 1.2680397,1.7738219 0 0 1 -1.744391,0.51982 1.2680397,1.7738219 0 0 1 -0.390489,-2.434396 1.2680397,1.7738219 0 0 1 1.735924,-0.572604 1.2680397,1.7738219 0 0 1 0.428128,2.421981" />
      <path
         style="fill:#000000;fill-opacity:0;stroke:#000000;stroke-width:0.3"
         id="path1482"
         sodipodi:type="arc"
         sodipodi:cx="54.844028"
         sodipodi:cy="51.423161"
         sodipodi:rx="1.2680397"
         sodipodi:ry="1.7738219"
         sodipodi:start="0.58093052"
         sodipodi:end="0.53756475"
         sodipodi:open="true"
         sodipodi:arc-type="arc"
         d="m 55.904049,52.396638 a 1.2680397,1.7738219 0 0 1 -1.74439,0.51982 1.2680397,1.7738219 0 0 1 -0.39049,-2.434396 1.2680397,1.7738219 0 0 1 1.735924,-0.572604 1.2680397,1.7738219 0 0 1 0.428129,2.421981" />
      <path
         style="fill:#000000;fill-opacity:0;stroke:#000000;stroke-width:0.3"
         id="path1484"
         sodipodi:type="arc"
         sodipodi:cx="65.041145"
         sodipodi:cy="41.596775"
         sodipodi:rx="1.2680397"
         sodipodi:ry="1.7738219"
         sodipodi:start="0.58093052"
         sodipodi:end="0.53756475"
         sodipodi:open="true"
         sodipodi:arc-type="arc"
         d="m 66.101166,42.570252 a 1.2680397,1.7738219 0 0 1 -1.744391,0.51982 1.2680397,1.7738219 0 0 1 -0.390489,-2.434396 1.2680397,1.7738219 0 0 1 1.735924,-0.572603 1.2680397,1.7738219 0 0 1 0.428128,2.42198" />
      <path
         style="fill:#000000;fill-opacity:0;stroke:#000000;stroke-width:0.3"
         id="path1486"
         sodipodi:type="arc"
         sodipodi:cx="67.080482"
         sodipodi:cy="53.869183"
         sodipodi:rx="1.2680397"
         sodipodi:ry="1.7738219"
         sodipodi:start="0.58093052"
         sodipodi:end="0.53756475"
         sodipodi:open="true"
         sodipodi:arc-type="arc"
         d="m 68.140503,54.84266 a 1.2680397,1.7738219 0 0 1 -1.74439,0.51982 1.2680397,1.7738219 0 0 1 -0.39049,-2.434396 1.2680397,1.7738219 0 0 1 1.735924,-0.572604 1.2680397,1.7738219 0 0 1 0.428129,2.421981" />
    </g>
    <path
       style="fill:#000000;fill-opacity:0;stroke:#000000;stroke-width:0.3"
       id="path1488"
       sodipodi:type="arc"
       sodipodi:cx="77.800644"
       sodipodi:cy="42.348156"
       sodipodi:rx="1.2680397"
       sodipodi:ry="1.7738219"
       sodipodi:start="0.58093052"
       sodipodi:end="0.53756475"
       sodipodi:open="true"
       sodipodi:arc-type="arc"
       d="m 78.860665,43.321633 a 1.2680397,1.7738219 0 0 1 -1.744391,0.51982 1.2680397,1.7738219 0 0 1 -0.39049,-2.434396 1.2680397,1.7738219 0 0 1 1.735924,-0.572604 1.2680397,1.7738219 0 0 1 0.428129,2.421981" />
    <path
       style="fill:#000000;fill-opacity:0;stroke:#000000;stroke-width:0.3"
       id="path1490"
       sodipodi:type="arc"
       sodipodi:cx="79.839981"
       sodipodi:cy="54.620564"
       sodipodi:rx="1.2680397"
       sodipodi:ry="1.7738219"
       sodipodi:start="0.58093052"
       sodipodi:end="0.53756475"
       sodipodi:open="true"
       sodipodi:arc-type="arc"
       d="m 80.900002,55.594041 a 1.2680397,1.7738219 0 0 1 -1.744391,0.51982 1.2680397,1.7738219 0 0 1 -0.39049,-2.434396 1.2680397,1.7738219 0 0 1 1.735924,-0.572604 1.2680397,1.7738219 0 0 1 0.428129,2.42198" />
    <g
       id="g1506"
       transform="translate(-6.7350299,15.312842)">
      <path
         style="fill:#000000;fill-opacity:0;stroke:#000000;stroke-width:0.3"
         id="path1498"
         sodipodi:type="arc"
         sodipodi:cx="35.979984"
         sodipodi:cy="55.341408"
         sodipodi:rx="1.2680397"
         sodipodi:ry="1.7738219"
         sodipodi:start="0.58093052"
         sodipodi:end="0.53756475"
         sodipodi:open="true"
         sodipodi:arc-type="arc"
         d="m 37.040005,56.314885 a 1.2680397,1.7738219 0 0 1 -1.744391,0.51982 1.2680397,1.7738219 0 0 1 -0.390489,-2.434396 1.2680397,1.7738219 0 0 1 1.735924,-0.572604 1.2680397,1.7738219 0 0 1 0.428128,2.421981" />
      <path
         style="fill:#000000;fill-opacity:0;stroke:#000000;stroke-width:0.3"
         id="path1500"
         sodipodi:type="arc"
         sodipodi:cx="54.844028"
         sodipodi:cy="51.423161"
         sodipodi:rx="1.2680397"
         sodipodi:ry="1.7738219"
         sodipodi:start="0.58093052"
         sodipodi:end="0.53756475"
         sodipodi:open="true"
         sodipodi:arc-type="arc"
         d="m 55.904049,52.396638 a 1.2680397,1.7738219 0 0 1 -1.74439,0.51982 1.2680397,1.7738219 0 0 1 -0.39049,-2.434396 1.2680397,1.7738219 0 0 1 1.735924,-0.572604 1.2680397,1.7738219 0 0 1 0.428129,2.421981" />
      <path
         style="fill:#000000;fill-opacity:0;stroke:#000000;stroke-width:0.3"
         id="path1502"
         sodipodi:type="arc"
         sodipodi:cx="65.041145"
         sodipodi:cy="41.596775"
         sodipodi:rx="1.2680397"
         sodipodi:ry="1.7738219"
         sodipodi:start="0.58093052"
         sodipodi:end="0.53756475"
         sodipodi:open="true"
         sodipodi:arc-type="arc"
         d="m 66.101166,42.570252 a 1.2680397,1.7738219 0 0 1 -1.744391,0.51982 1.2680397,1.7738219 0 0 1 -0.390489,-2.434396 1.2680397,1.7738219 0 0 1 1.735924,-0.572603 1.2680397,1.7738219 0 0 1 0.428128,2.42198" />
      <path
         style="fill:#000000;fill-opacity:0;stroke:#000000;stroke-width:0.3"
         id="path1504"
         sodipodi:type="arc"
         sodipodi:cx="67.080482"
         sodipodi:cy="53.869183"
         sodipodi:rx="1.2680397"
         sodipodi:ry="1.7738219"
         sodipodi:start="0.58093052"
         sodipodi:end="0.53756475"
         sodipodi:open="true"
         sodipodi:arc-type="arc"
         d="m 68.140503,54.84266 a 1.2680397,1.7738219 0 0 1 -1.74439,0.51982 1.2680397,1.7738219 0 0 1 -0.39049,-2.434396 1.2680397,1.7738219 0 0 1 1.735924,-0.572604 1.2680397,1.7738219 0 0 1 0.428129,2.421981" />
    </g>
    <g
       id="g1516"
       transform="translate(-8.1756947,-11.859097)">
      <path
         style="fill:#000000;fill-opacity:0;stroke:#000000;stroke-width:0.3"
         id="path1508"
         sodipodi:type="arc"
         sodipodi:cx="35.979984"
         sodipodi:cy="55.341408"
         sodipodi:rx="1.2680397"
         sodipodi:ry="1.7738219"
         sodipodi:start="0.58093052"
         sodipodi:end="0.53756475"
         sodipodi:open="true"
         sodipodi:arc-type="arc"
         d="m 37.040005,56.314885 a 1.2680397,1.7738219 0 0 1 -1.744391,0.51982 1.2680397,1.7738219 0 0 1 -0.390489,-2.434396 1.2680397,1.7738219 0 0 1 1.735924,-0.572604 1.2680397,1.7738219 0 0 1 0.428128,2.421981" />
      <path
         style="fill:#000000;fill-opacity:0;stroke:#000000;stroke-width:0.3"
         id="path1510"
         sodipodi:type="arc"
         sodipodi:cx="54.844028"
         sodipodi:cy="51.423161"
         sodipodi:rx="1.2680397"
         sodipodi:ry="1.7738219"
         sodipodi:start="0.58093052"
         sodipodi:end="0.53756475"
         sodipodi:open="true"
         sodipodi:arc-type="arc"
         d="m 55.904049,52.396638 a 1.2680397,1.7738219 0 0 1 -1.74439,0.51982 1.2680397,1.7738219 0 0 1 -0.39049,-2.434396 1.2680397,1.7738219 0 0 1 1.735924,-0.572604 1.2680397,1.7738219 0 0 1 0.428129,2.421981" />
      <path
         style="fill:#000000;fill-opacity:0;stroke:#000000;stroke-width:0.3"
         id="path1512"
         sodipodi:type="arc"
         sodipodi:cx="65.041145"
         sodipodi:cy="41.596775"
         sodipodi:rx="1.2680397"
         sodipodi:ry="1.7738219"
         sodipodi:start="0.58093052"
         sodipodi:end="0.53756475"
         sodipodi:open="true"
         sodipodi:arc-type="arc"
         d="m 66.101166,42.570252 a 1.2680397,1.7738219 0 0 1 -1.744391,0.51982 1.2680397,1.7738219 0 0 1 -0.390489,-2.434396 1.2680397,1.7738219 0 0 1 1.735924,-0.572603 1.2680397,1.7738219 0 0 1 0.428128,2.42198" />
      <path
         style="fill:#000000;fill-opacity:0;stroke:#000000;stroke-width:0.3"
         id="path1514"
         sodipodi:type="arc"
         sodipodi:cx="67.080482"
         sodipodi:cy="53.869183"
         sodipodi:rx="1.2680397"
         sodipodi:ry="1.7738219"
         sodipodi:start="0.58093052"
         sodipodi:end="0.53756475"
         sodipodi:open="true"
         sodipodi:arc-type="arc"
         d="m 68.140503,54.84266 a 1.2680397,1.7738219 0 0 1 -1.74439,0.51982 1.2680397,1.7738219 0 0 1 -0.39049,-2.434396 1.2680397,1.7738219 0 0 1 1.735924,-0.572604 1.2680397,1.7738219 0 0 1 0.428129,2.421981" />
    </g>
    <text
       xml:space="preserve"
       style="font-size:6.35px;fill:#000000;fill-opacity:1;stroke:#000000;stroke-width:0.3"
       x="22.808092"
       y="27.357082"
       id="text1572"><tspan
         sodipodi:role="line"
         id="tspan1570"
         style="fill:#000000;fill-opacity:1;stroke-width:0.3"
         x="22.808092"
         y="27.357082">$\Omega$</tspan></text>
  </g>
</svg>
