<?xml version="1.0" encoding="UTF-8" standalone="no"?>
<!-- Created with Inkscape (http://www.inkscape.org/) -->

<svg
   width="132.84294mm"
   height="59.475727mm"
   viewBox="0 0 132.84294 59.475727"
   version="1.1"
   id="svg1"
   inkscape:version="1.3 (0e150ed6c4, 2023-07-21)"
   sodipodi:docname="drawing.svg"
   xmlns:inkscape="http://www.inkscape.org/namespaces/inkscape"
   xmlns:sodipodi="http://sodipodi.sourceforge.net/DTD/sodipodi-0.dtd"
   xmlns="http://www.w3.org/2000/svg"
   xmlns:svg="http://www.w3.org/2000/svg">
  <sodipodi:namedview
     id="namedview1"
     pagecolor="#ffffff"
     bordercolor="#000000"
     borderopacity="0.25"
     inkscape:showpageshadow="2"
     inkscape:pageopacity="0.0"
     inkscape:pagecheckerboard="0"
     inkscape:deskcolor="#d1d1d1"
     inkscape:document-units="mm"
     inkscape:zoom="1.3959208"
     inkscape:cx="225.29931"
     inkscape:cy="181.95874"
     inkscape:window-width="1358"
     inkscape:window-height="760"
     inkscape:window-x="3"
     inkscape:window-y="3"
     inkscape:window-maximized="1"
     inkscape:current-layer="layer1" />
  <defs
     id="defs1" />
  <g
     inkscape:label="Layer 1"
     inkscape:groupmode="layer"
     id="layer1"
     transform="translate(-22.468812,-57.58467)">
    <path
       style="fill:#000000;fill-opacity:1;fill-rule:nonzero;stroke:none;stroke-width:0.264583"
       id="path365"
       d="m 92.130823,58.507407 c -0.943181,-0.426733 -2.007849,-0.532694 -3.034313,-0.490776 -0.436322,0.01781 -0.869873,0.07808 -1.304811,0.117121 -3.263278,0.448709 -6.345947,1.649267 -9.401561,2.824101 -0.635916,0.275246 -2.798641,1.121093 -2.399583,2.226808 0.253735,0.703059 1.412967,1.058672 1.859536,1.294289 1.899746,0.562549 3.8974,0.780084 5.875457,0.793596 1.226534,0.0084 2.222368,-0.07883 3.445693,-0.158607 1.566404,-0.138372 3.139066,-0.331139 4.666781,-0.717473 1.170408,-0.295976 2.277684,-0.739196 3.380912,-1.219539 0.700617,-0.347025 1.393217,-0.734965 1.963923,-1.278014 0.203067,-0.193228 0.46496,-0.467445 0.512627,-0.76867 0.02191,-0.138356 -0.02744,-0.278808 -0.04117,-0.418211 -0.300657,-0.74067 -0.95653,-1.160775 -1.626651,-1.537502 -1.005041,-0.56501 -1.008197,-0.55825 -1.840952,-0.979556 -0.523163,-0.33233 -1.114843,-0.447022 -1.701982,-0.610304 0,0 0.06323,0.04901 0.06323,0.04901 v 0 c 0.247171,0.0883 0.500602,0.160722 0.74151,0.264901 0.05733,0.02479 1.25775,0.632259 1.417569,0.713023 0.896681,0.454073 1.824458,0.78508 2.285151,1.773158 0.01916,0.129006 0.06749,0.256985 0.05746,0.387014 -0.07255,0.939573 -1.501677,1.753243 -2.190078,2.167097 -0.30937,0.151389 -0.611225,0.319211 -0.928108,0.454167 -2.237754,0.953014 -4.68665,1.241613 -7.083206,1.489435 -0.576029,0.03755 -1.151276,0.09011 -1.728086,0.112668 -2.608559,0.102012 -5.260134,-0.06766 -7.750254,-0.899663 -0.120322,-0.04082 -0.260649,-0.04449 -0.360963,-0.122468 -0.583602,-0.453678 -0.689634,-1.08091 -0.231119,-1.677439 0.494874,-0.643827 1.033047,-0.848464 1.733222,-1.256769 3.002367,-1.272854 6.107866,-2.386965 9.348208,-2.856798 0.443312,-0.03251 0.885512,-0.08903 1.329933,-0.09753 1.111057,-0.02125 2.233798,0.172223 3.23651,0.65791 z" />
    <path
       style="fill:#000000;fill-opacity:1;fill-rule:nonzero;stroke:none;stroke-width:0.264583"
       id="path366"
       d="m 84.038272,65.516521 c 0.230042,-0.43905 0.385985,-0.479605 -0.504015,-0.719257 -0.07774,-0.02093 -0.132768,0.09111 -0.198385,0.137756 -0.114757,0.08158 -0.228481,0.164608 -0.342722,0.246912 -2.087891,1.475978 -4.402151,2.582791 -6.676197,3.734607 -2.384798,1.241221 -4.868783,2.282822 -7.227282,3.574446 -0.186433,0.197721 -1.072441,0.450789 -1.13919,0.751674 -0.102653,0.462724 0.265253,0.188544 -0.01037,0.358907 0,0 0.06704,0.04365 0.06704,0.04365 v 0 c 0.344342,-0.175789 -0.259828,0.106043 0.562756,-0.0095 0.448868,-0.06306 0.67487,-0.632386 1.075761,-0.786217 2.147261,-1.516409 4.526209,-2.64949 6.886364,-3.791276 2.347325,-1.131339 4.69067,-2.270773 6.960258,-3.55352 0.134205,-0.06776 0.265885,-0.140751 0.402609,-0.203264 0.07403,-0.03385 0.272462,-0.01675 0.228767,-0.08543 -0.118354,-0.186026 -0.355092,-0.261461 -0.532638,-0.392189 -0.0031,0.02535 0.0047,0.05474 -0.0094,0.07605 -0.05642,0.08531 -0.165492,0.126648 -0.215741,0.21817 z" />
    <path
       style="fill:#000000;fill-opacity:1;fill-rule:nonzero;stroke:none;stroke-width:0.264583"
       id="path367"
       d="m 69.537746,69.424912 c -0.709237,0.879377 -1.57974,1.620991 -2.478466,2.299933 -0.830024,0.512288 -0.991449,0.573156 0.323281,1.113456 0.04062,0.01669 0.953966,0.0408 0.954789,0.04082 0.567102,5.3e-4 1.135869,0.08196 1.701996,0.0096 0.88457,-0.113009 -0.185854,-0.06412 0.693705,-0.08593 0,0 -0.06451,-0.04731 -0.06451,-0.04731 v 0 c -0.946881,-0.09653 0.204059,0.03346 -1.032045,-0.162137 -0.623125,-0.09861 -1.250817,-0.110193 -1.879523,-0.14115 -0.192566,-0.01622 -0.385908,-0.02498 -0.577694,-0.04868 -0.152826,-0.01889 -0.467135,-0.232497 -0.455165,-0.07897 0.01564,0.20057 0.302538,0.269946 0.477763,0.368792 0.03914,0.02207 -0.05861,-0.08257 -0.0476,-0.126138 0.03133,-0.123965 0.353504,-0.489312 0.392761,-0.537398 0.835133,-0.769458 1.739524,-1.460928 2.53429,-2.274781 z" />
    <path
       style="fill:#000000;fill-opacity:1;fill-rule:nonzero;stroke:none;stroke-width:0.264583"
       id="path368"
       d="m 73.063938,75.16102 c -0.146116,-0.569672 -0.504346,-0.923309 -0.992344,-1.222565 -0.356973,-0.17471 -0.703244,-0.373232 -1.070917,-0.524127 -0.165806,-0.06804 -1.061884,-0.246835 -1.191691,-0.272738 -0.762071,-0.152066 -1.526479,-0.29383 -2.29026,-0.436972 -1.361503,-0.264803 -2.725973,-0.513784 -4.111045,-0.607706 -1.114081,-0.05228 -2.220053,0.122867 -3.297045,0.392385 -1.109231,0.296847 -2.211929,0.617104 -3.285873,1.024483 -0.892273,0.339323 -1.745636,0.747786 -2.576587,1.215308 -0.707511,0.365569 -1.385739,0.75538 -1.891546,1.380371 -0.265004,0.362357 -0.539797,0.756695 -0.636373,1.205097 -0.06813,0.316336 -0.04263,0.49847 -0.03393,0.822902 0.07986,1.064474 0.627411,1.940893 1.317088,2.71984 0.822528,0.695494 1.776005,1.274241 2.808784,1.59707 0.550598,0.172106 0.859362,0.21872 1.427597,0.333502 1.577086,0.202036 3.168451,0.433197 4.76165,0.461047 0.322382,0.0056 0.644732,-0.01291 0.967098,-0.01937 1.737288,-0.167478 3.484475,-0.357412 5.17784,-0.798658 0.332515,-0.08664 0.659045,-0.19482 0.988568,-0.292232 1.61953,-0.553976 3.209276,-1.200428 4.735094,-1.976898 0.857906,-0.443566 1.558229,-1.005242 2.122271,-1.786024 0.32884,-0.529043 0.540583,-1.117458 0.505269,-1.74298 -0.428511,-1.238232 -1.738016,-1.77781 -2.812253,-2.345068 0,0 0.06236,0.05011 0.06236,0.05011 v 0 c 0.176472,0.09302 0.362146,0.17035 0.529413,0.279049 0.109074,0.07088 0.198188,0.168621 0.294319,0.256262 0.394431,0.359595 0.780011,0.748572 0.947344,1.268791 0.04362,0.60154 -0.162669,1.166579 -0.457264,1.686642 -0.503653,0.772157 -1.205341,1.347914 -2.006629,1.800031 -1.464805,0.822024 -3.00256,1.516656 -4.597318,2.04715 -1.975839,0.586984 -4.005908,1.009314 -6.06738,1.135394 -1.937895,0.03886 -3.867856,-0.145553 -5.774629,-0.496719 -0.573609,-0.123695 -0.888267,-0.174381 -1.442442,-0.360484 -0.216673,-0.07276 -0.416616,-0.195559 -0.638784,-0.249248 -0.07219,-0.01744 0.240732,0.172725 0.175469,0.137287 -0.431329,-0.234228 -0.547843,-0.354486 -0.926086,-0.65714 -0.704673,-0.753367 -1.263864,-1.611789 -1.349145,-2.667738 -0.006,-0.798291 0.149537,-1.336916 0.642482,-1.975639 0.07967,-0.09504 0.359535,-0.434684 0.453557,-0.524629 0.391689,-0.374703 0.892773,-0.61582 1.367269,-0.863433 0.831464,-0.437042 1.62768,-0.961398 2.536499,-1.227302 1.086803,-0.350194 2.179532,-0.681738 3.267144,-1.029459 1.082934,-0.277371 2.195603,-0.385723 3.314182,-0.352234 1.357603,0.07394 2.699414,0.28213 4.0303,0.558852 0.769188,0.151583 1.541007,0.293254 2.308606,0.452665 0.219773,0.04564 0.43988,0.09036 0.657587,0.145003 0.18791,0.04716 0.366112,0.181488 0.558681,0.160255 0.09672,-0.01066 -0.142854,-0.132154 -0.214281,-0.198231 0.471276,0.271378 0.820386,0.592206 0.944145,1.141307 z" />
    <path
       style="fill:#000000;fill-opacity:1;fill-rule:nonzero;stroke:none;stroke-width:0.264583"
       id="path369"
       d="m 94.038588,64.93412 c -0.179427,-0.340339 -0.305953,-0.699376 -0.4992,-1.033309 -0.01275,-0.02994 -0.04121,-0.0574 -0.0383,-0.08982 0.0021,-0.02331 0.0572,0.01077 0.192415,0.07178 0.131191,0.0592 0.263226,0.116535 0.394153,0.176321 0.478769,0.218619 1.009118,0.46922 1.479582,0.689871 2.495703,1.179751 5.077632,2.161773 7.621132,3.230989 2.19731,0.943414 4.26115,2.160447 6.44624,3.128785 0.18991,0.08731 0.37981,0.174622 0.56972,0.261935 0,0 -0.0626,-0.04977 -0.0626,-0.04977 v 0 c -0.1899,-0.08733 -0.37978,-0.174665 -0.56968,-0.261999 -2.15247,-1.069919 -4.29755,-2.157616 -6.48345,-3.157685 -2.57739,-1.069705 -5.19556,-2.050582 -7.697611,-3.292846 -0.54324,-0.268358 -1.082649,-0.544544 -1.628598,-0.807349 -0.04905,-0.02363 -0.455424,-0.248894 -0.593606,-0.218297 -0.05298,0.01172 0.01053,0.17585 0.0218,0.161329 0.178993,0.370134 0.408929,0.709893 0.594394,1.076378 z" />
    <path
       style="fill:#000000;fill-opacity:1;fill-rule:nonzero;stroke:none;stroke-width:0.264583"
       id="path370"
       d="m 107.52326,68.565471 c 0.55999,0.310121 1.15322,0.55358 1.72902,0.831646 0.47909,0.231365 0.35962,0.09115 0.52208,0.332036 0.0312,0.0802 0.10534,0.155313 0.0937,0.240594 -0.03,0.220221 -0.4437,0.640294 -0.54339,0.739505 -0.48912,0.486794 -1.04768,0.914503 -1.56894,1.365978 -0.18565,0.117361 -0.37131,0.234722 -0.55697,0.352083 0,0 0.0673,0.0433 0.0673,0.0433 v 0 c 0.18571,-0.11744 0.37141,-0.234878 0.55712,-0.352319 0.6519,-0.35161 1.27576,-0.709562 1.82846,-1.210408 0.19184,-0.173842 0.5408,-0.468672 0.5431,-0.788551 7.9e-4,-0.102729 -0.0906,-0.184401 -0.13593,-0.276603 -0.18022,-0.122349 -0.354,-0.25477 -0.54066,-0.367049 -0.75416,-0.45363 -1.60565,-0.738229 -2.35546,-1.202028 z" />
    <path
       style="fill:#000000;fill-opacity:1;fill-rule:nonzero;stroke:none;stroke-width:0.264583"
       id="path371"
       d="m 119.7183,72.739289 c 0.0287,-0.08907 0.13845,-0.406673 0.12935,-0.486992 -0.0975,-0.86064 -1.35611,-1.168122 -1.97415,-1.409452 -1.77325,-0.371041 -3.63484,-0.490495 -5.41519,-0.08246 -0.33714,0.07727 -0.66349,0.195774 -0.99524,0.293659 -1.7985,0.602049 -3.34797,1.589479 -4.81794,2.764295 -0.61668,0.498901 -1.22206,1.159658 -0.59554,1.94296 0.40511,0.506484 1.28708,0.893236 1.7545,1.159645 2.19415,0.89418 4.56417,1.059743 6.90562,1.105042 1.69627,-0.02537 3.40838,-0.01543 5.09281,-0.252513 1.09145,-0.153625 1.37461,-0.25999 2.43216,-0.536495 0.91115,-0.235268 1.77943,-0.576683 2.54697,-1.126887 0.25488,-0.182705 0.64405,-0.487032 0.78861,-0.794747 0.0633,-0.134713 0.0592,-0.291735 0.0887,-0.4376 -0.0347,-0.155461 -0.0461,-0.318011 -0.10407,-0.466384 -0.41393,-1.059995 -1.44362,-1.732148 -2.36719,-2.293128 -1.01156,-0.509915 -0.54182,-0.329057 -1.38698,-0.597138 0,0 0.0631,0.0492 0.0631,0.0492 v 0 c 0.74715,0.288229 0.43061,0.143478 0.96136,0.407559 0.98259,0.616934 1.96668,1.377672 2.22097,2.575094 -0.0171,0.141332 -0.003,0.290253 -0.0513,0.424 -0.39521,1.083588 -2.22694,1.631498 -3.16999,1.977678 -0.39969,0.10005 -0.79481,0.220605 -1.19909,0.300146 -2.0821,0.409657 -4.2311,0.40068 -6.34206,0.460206 -2.37119,-0.06271 -4.7728,-0.23962 -6.9776,-1.196126 -0.27232,-0.122941 -0.31702,-0.127934 -0.60862,-0.466807 -0.57858,-0.672361 -0.19449,-1.434404 0.29182,-2.019289 0.19711,-0.183581 0.38368,-0.379185 0.59133,-0.550749 1.19747,-0.989351 2.61864,-1.706599 4.03193,-2.325984 0.32409,-0.102346 0.64236,-0.225387 0.97228,-0.307038 1.7936,-0.443894 3.67716,-0.319431 5.4553,0.123627 0.16471,0.04324 0.33716,0.06365 0.49411,0.129709 0.31908,0.134308 0.70621,0.421471 0.69671,0.815348 -0.003,0.137795 -0.11537,0.320783 -0.17861,0.439798 z" />
    <path
       style="fill:#000000;fill-opacity:1;fill-rule:nonzero;stroke:none;stroke-width:0.264583"
       id="path372"
       d="m 62.881919,83.106632 c -0.918495,0.79742 -1.811509,1.616646 -2.675194,2.473523 -1.416142,1.307682 -2.821987,2.626617 -4.290467,3.875773 -1.706393,1.342136 0.410226,-0.331218 -1.039053,0.838348 -0.224621,0.181269 -0.499859,0.352388 -0.670671,0.596313 -0.07182,0.102566 -0.108421,0.22574 -0.162632,0.338608 0,0 0.0686,0.04115 0.0686,0.04115 v 0 c 0.345358,-0.263964 0.634476,-0.57056 0.966552,-0.849339 0.155623,-0.130646 0.324623,-0.244673 0.481581,-0.373713 0.186127,-0.153022 0.364885,-0.314793 0.547328,-0.472189 1.416801,-1.288399 2.724404,-2.691704 4.168045,-3.952105 0.943197,-0.809966 1.873967,-1.639972 2.920978,-2.316874 z" />
    <path
       style="fill:#000000;fill-opacity:1;fill-rule:nonzero;stroke:none;stroke-width:0.264583"
       id="path373"
       d="m 53.672078,88.39755 c -0.587055,0.772583 -1.037614,1.636146 -1.482196,2.495206 -0.0479,0.267507 -0.42363,0.635802 -0.286446,0.935469 0.03339,0.07294 0.103952,0.128844 0.175993,0.164121 0.639625,0.313208 0.569854,0.241876 1.21647,0.209984 0.950711,-0.09707 0.464574,-0.06326 1.458677,-0.0975 0,0 -0.06488,-0.0468 -0.06488,-0.0468 v 0 c -1.034311,0.03563 -0.506724,0.03214 -1.582782,0.0069 -0.214831,-0.01111 -0.430321,-0.05344 -0.644493,-0.03331 -0.03548,0.0033 -0.0078,0.104172 -0.04291,0.09793 -0.513871,-0.09145 -0.04902,-0.88141 0.05121,-1.077117 0.409607,-0.880073 0.903515,-1.708665 1.458781,-2.504836 z" />
    <path
       style="fill:#000000;fill-opacity:1;fill-rule:nonzero;stroke:none;stroke-width:0.264583"
       id="path374"
       d="m 54.384019,91.47449 c -0.942004,-0.721127 -2.092442,-0.798682 -3.227938,-0.94111 -2.330604,-0.295656 -4.670417,-0.501801 -7.02051,-0.463756 -1.796835,-2.01e-4 -3.079829,0.559239 -4.580482,1.461749 -0.987547,0.585266 -1.561132,1.271129 -2.123707,2.243825 -0.302985,0.742934 -0.316148,1.542722 -0.152562,2.31825 0.26924,0.732983 0.917588,1.146927 1.574229,1.512731 1.215329,0.677045 1.059121,0.57729 2.190527,1.009479 1.23693,0.394996 2.521371,0.686535 3.818859,0.788376 0.796194,0.06249 1.067302,0.03033 1.862986,0.0024 1.652844,-0.131511 3.30613,-0.468312 4.869032,-1.030145 0.321519,-0.11558 0.632635,-0.258275 0.948952,-0.38741 1.079312,-0.491911 2.054971,-1.209355 2.895177,-2.045444 0.325667,-0.324072 0.550711,-0.618553 0.837274,-0.971351 0.487587,-0.659075 0.821494,-1.218171 0.897792,-2.03889 -0.03794,-1.175647 -0.98452,-1.45437 -1.921214,-1.886879 -0.173342,-0.04913 -0.346683,-0.09826 -0.520025,-0.147394 0,0 0.06312,0.04915 0.06312,0.04915 v 0 c 0.22066,0.08682 0.44132,0.173647 0.66198,0.26047 0.62257,0.181887 0.956106,0.697124 0.952069,1.329375 -0.02365,0.769903 -0.298829,1.441577 -0.756849,2.063803 -0.925052,1.30117 -2.035275,2.442752 -3.508404,3.120585 -0.310483,0.131514 -0.615818,0.275916 -0.93145,0.394544 -1.555324,0.584563 -3.198563,0.91276 -4.853733,1.025189 -0.311912,0.0082 -0.623724,0.02705 -0.935734,0.02458 -1.603398,-0.01265 -3.199402,-0.311735 -4.71815,-0.816351 -1.081839,-0.429043 -2.326976,-0.827103 -2.840876,-1.976606 -0.23182,-0.769403 -0.223065,-1.560743 0.05162,-2.32269 0.398899,-0.962155 1.06119,-1.756312 1.9378,-2.326619 1.395214,-0.875377 2.762708,-1.530789 4.453572,-1.530331 0.95848,-0.02652 1.207683,-0.04899 2.179011,-0.01103 1.61368,0.06306 3.217497,0.269307 4.819279,0.462492 0.758555,0.120804 2.488086,0.442487 2.646503,0.655862 z" />
    <path
       style="fill:#000000;fill-opacity:1;fill-rule:nonzero;stroke:none;stroke-width:0.264583"
       id="path375"
       d="m 62.139866,82.65288 c 1.435743,0.829807 2.912528,1.5856 4.379357,2.358263 2.572004,1.455949 5.203,2.799027 7.827896,4.155688 1.817209,0.969695 3.604295,1.997049 5.361734,3.071228 0.835205,0.533244 0.445894,0.273534 1.171199,0.774208 0,0 0.07436,0.02951 0.07436,0.02951 v 0 C 80.429747,92.618786 80.713523,92.83792 80.099306,92.389292 78.150637,91.170029 76.132163,90.059837 74.106904,88.97427 71.469614,87.631023 68.844694,86.268003 66.268575,84.809657 64.754913,84.00136 63.236059,83.202234 61.751704,82.34065 Z" />
    <path
       style="fill:#000000;fill-opacity:1;fill-rule:nonzero;stroke:none;stroke-width:0.264583"
       id="path376"
       d="m 82.753913,92.421936 c -1.009406,-0.332721 -2.07474,-0.413236 -3.130515,-0.404323 -1.237729,0.07566 -2.390087,0.53906 -3.367143,1.299321 -0.174173,0.135525 -0.330417,0.29264 -0.495623,0.43896 -0.575945,0.641453 -1.187291,1.548008 -0.869151,2.45532 0.05211,0.148614 0.147664,0.27821 0.221496,0.417314 0.374584,0.373049 0.363937,0.41597 0.848955,0.671968 0.465633,0.245769 0.928979,0.500324 1.41709,0.697719 0.647266,0.261755 1.652849,0.216183 2.335228,0.21971 1.277448,-0.05176 2.541585,-0.240403 3.783428,-0.538898 0.314727,-0.07565 0.632899,-0.140409 0.941181,-0.239098 0.307467,-0.09843 0.601742,-0.234098 0.902613,-0.351147 1.016894,-0.532125 2.631665,-1.306341 3.136913,-2.418358 0.06907,-0.152027 0.08519,-0.322916 0.127778,-0.484376 -0.01352,-0.151042 -0.0013,-0.306625 -0.04059,-0.453125 -0.31297,-1.170466 -2.211705,-1.542838 -3.226347,-1.845715 0,0 0.06333,0.04888 0.06333,0.04888 v 0 c 0.846142,0.253108 2.199454,0.533612 2.550437,1.494999 0.05195,0.142309 0.05403,0.298132 0.08105,0.447199 -0.03039,0.160663 -0.03387,0.328842 -0.09116,0.481986 -0.322657,0.862441 -1.423951,1.588624 -2.19872,1.988402 -0.294483,0.15195 -0.607956,0.263869 -0.911936,0.395801 -0.32018,0.101412 -0.63727,0.213161 -0.960544,0.304236 -1.575398,0.443831 -3.223635,0.629214 -4.855924,0.659492 -0.698357,-0.02521 -1.034717,-0.01103 -1.714764,-0.134249 -0.229347,-0.04156 -0.449147,-0.21077 -0.678477,-0.169135 -0.11507,0.0209 0.364474,0.266152 0.249087,0.247094 -0.274881,-0.0454 -0.699053,-0.467815 -0.893223,-0.639799 -0.0926,-0.138472 -0.203274,-0.266433 -0.277789,-0.415417 -0.473765,-0.947227 -0.106621,-1.802593 0.51851,-2.557844 0.152471,-0.151691 0.29491,-0.314179 0.457409,-0.455072 0.930224,-0.80654 2.096206,-1.218563 3.314888,-1.298491 1.042535,0.02024 2.095661,0.127662 3.103927,0.401979 z" />
    <path
       style="fill:#000000;fill-opacity:1;fill-rule:nonzero;stroke:none;stroke-width:0.264583"
       id="path377"
       d="m 111.24243,77.981923 c -0.10002,0.02956 -0.20321,0.04997 -0.30006,0.08867 -0.5215,0.208413 -0.76375,0.368552 -1.26897,0.679069 -1.07526,0.660861 -2.06588,1.402628 -3.06422,2.173608 -1.11226,0.856588 -2.21786,1.722101 -3.34597,2.557891 -0.305,0.225973 -0.62804,0.428411 -0.92075,0.670092 -0.1798,0.148447 -0.87172,0.855403 -1.08456,1.070821 0,0 0.0676,0.04276 0.0676,0.04276 v 0 c 0.35965,-0.201848 1.14168,-0.631249 1.44106,-0.846209 0.30185,-0.216728 0.57347,-0.472718 0.86109,-0.708002 1.07882,-0.882512 2.16136,-1.760989 3.27175,-2.603761 1.12144,-0.814798 1.11476,-0.82427 2.20331,-1.564079 0.67753,-0.460468 1.37253,-0.94415 2.12692,-1.276178 0.0925,-0.04071 0.19284,-0.06049 0.28926,-0.09073 z" />
    <path
       style="fill:#000000;fill-opacity:1;fill-rule:nonzero;stroke:none;stroke-width:0.264583"
       id="path378"
       d="m 103.65158,81.472878 c -0.11878,0.09241 -0.24464,0.176387 -0.35635,0.277241 -0.57987,0.523525 -1.09383,1.12532 -1.61965,1.700646 -0.92352,1.010475 -0.2265,0.212082 -1.02059,1.137986 -0.0819,0.142645 -0.20835,0.267758 -0.24583,0.427937 -0.0745,0.318371 0.18179,0.498007 0.41132,0.631928 0.65848,0.384191 1.06189,0.559062 1.75686,0.651299 0.11726,0.03143 0.23451,0.06287 0.35177,0.0943 0,0 -0.0634,-0.04883 -0.0634,-0.04883 v 0 c -0.12821,-0.0399 -0.25642,-0.0798 -0.38463,-0.1197 -0.0118,-0.0047 -1.11587,-0.439346 -1.12505,-0.441529 -0.0376,-0.0089 0.0924,0.117121 0.0575,0.100563 -0.213,-0.101095 -0.47971,-0.283086 -0.4708,-0.566732 0.005,-0.163325 0.10705,-0.308782 0.16057,-0.463174 0.12334,-0.18967 0.23559,-0.387036 0.37003,-0.569008 0.71876,-0.97291 1.64806,-1.760207 2.49665,-2.612636 z" />
    <path
       style="fill:#000000;fill-opacity:1;fill-rule:nonzero;stroke:none;stroke-width:0.264583"
       id="path379"
       d="m 106.7048,87.656619 c -1.0953,-1.142267 -2.60628,-1.813724 -4.05924,-2.376959 -1.89807,-0.608023 -3.730082,-0.497364 -5.653116,-0.05215 -0.366802,0.08492 -0.725257,0.202557 -1.087885,0.303834 -0.886714,0.30878 -1.728821,0.697106 -2.317009,1.460384 -0.49553,0.643038 -0.695782,1.417894 -0.896109,2.18494 -0.0064,0.244641 -0.04865,0.490966 -0.01934,0.73393 0.192643,1.596099 1.731338,2.257261 3.071257,2.735297 0.435745,0.155459 0.90416,0.196593 1.356241,0.294891 1.139147,0.145929 1.817579,0.279877 2.973711,0.23808 1.9282,-0.06971 3.79666,-0.626435 5.62113,-1.203079 0.90614,-0.369792 2.83573,-0.852635 2.86635,-2.131912 0.004,-0.177966 -0.0701,-0.349062 -0.1052,-0.523594 -0.59322,-1.193194 -1.79339,-1.820741 -2.87935,-2.497024 0,0 -0.0745,-0.02923 -0.0745,-0.02923 v 0 c 0.78284,0.61278 1.63635,1.206195 2.09865,2.113264 0.0374,0.159906 0.10823,0.315545 0.11221,0.479721 0.0298,1.228109 -1.81043,1.766835 -2.66128,2.151928 -1.04319,0.353377 -1.46246,0.523742 -2.5644,0.773043 -1.9797,0.447887 -3.994934,0.554459 -5.995724,0.165444 -0.463878,-0.112162 -0.923324,-0.244559 -1.391634,-0.336489 -0.12433,-0.02439 -0.267282,0.04669 -0.379949,-0.01127 -0.710777,-0.365723 -1.184858,-1.107292 -1.35172,-1.868006 -0.05494,-0.250478 -0.05271,-0.510151 -0.07906,-0.765228 0.03815,-0.253497 0.05138,-0.512016 0.11444,-0.760492 0.193386,-0.762045 0.622932,-1.545299 1.203679,-2.082149 0.507844,-0.469455 0.951632,-0.631703 1.567455,-0.938466 0.339665,-0.115996 0.673614,-0.25032 1.018993,-0.347983 1.813626,-0.51285 3.71713,-0.607123 5.52543,-0.03016 1.29475,0.499602 2.68224,1.060085 3.59877,2.149869 z" />
    <path
       style="fill:#000000;fill-opacity:1;fill-rule:nonzero;stroke:none;stroke-width:0.264583"
       id="path380"
       d="m 111.05111,77.17923 c 1.68248,1.018593 3.42993,1.930813 5.16153,2.863154 2.83254,1.490591 5.59106,3.112587 8.30257,4.811752 0.94153,0.609089 1.87942,1.222034 2.83401,1.810541 0,0 0.0745,0.02925 0.0745,0.02925 v 0 c -0.79499,-0.648407 -1.68144,-1.164297 -2.55286,-1.702023 -2.91489,-1.783905 -5.86369,-3.512245 -8.87696,-5.125701 -1.53157,-0.834715 -3.06741,-1.663552 -4.57409,-2.542614 z" />
    <path
       style="fill:#000000;fill-opacity:1;fill-rule:nonzero;stroke:none;stroke-width:0.264583"
       id="path381"
       d="m 132.11317,86.794836 c -0.19551,-0.334706 -0.48987,-0.553548 -0.8237,-0.747374 -1.01747,-0.590753 -1.68701,-0.800906 -2.80221,-1.108461 -1.70357,-0.204629 -3.47591,-0.09451 -5.0903,0.532305 -0.98938,0.384138 -1.2231,0.613214 -2.07945,1.197771 -0.84169,0.731216 -1.98083,1.529371 -2.19195,2.719933 -0.10174,0.573791 0.0365,0.741481 0.22606,1.261647 0.14561,0.187338 0.26584,0.39751 0.43683,0.56202 0.21538,0.207221 0.45857,0.386786 0.71274,0.544025 1.27861,0.790996 2.34357,1.316234 3.78274,1.653101 0.36723,0.08596 0.74086,0.141817 1.11129,0.212725 1.60914,0.168119 3.24818,0.353132 4.86935,0.233664 0.6932,-0.05108 1.75916,-0.245305 2.44303,-0.359526 1.34668,-0.289608 2.86942,-0.50822 3.90415,-1.516348 0.11865,-0.115607 0.21185,-0.254752 0.31778,-0.38213 0.54155,-0.815015 0.228,-1.495999 -0.25857,-2.237068 -0.34601,-0.408636 -0.67982,-0.863513 -1.11268,-1.188368 -0.49528,-0.3717 -1.03802,-0.675545 -1.5569,-1.013524 0,0 -0.0745,-0.02922 -0.0745,-0.02922 v 0 c 0.17466,0.125064 0.36584,0.229802 0.52398,0.375193 0.0875,0.08046 0.12671,0.20206 0.20304,0.293203 0.32186,0.384363 0.71785,0.706779 1.00638,1.12078 0.47596,0.696066 0.74292,1.302057 0.29474,2.097853 -0.0933,0.126661 -0.17402,0.263607 -0.27985,0.379981 -0.93402,1.027038 -2.38868,1.31694 -3.67915,1.59997 -0.40806,0.06439 -0.81399,0.144224 -1.22419,0.193159 -2.04297,0.243715 -4.11918,0.144716 -6.14983,-0.152879 -0.92595,-0.190497 -1.29107,-0.233474 -2.18043,-0.541528 -0.33306,-0.115361 -0.64942,-0.275013 -0.9806,-0.395642 -0.0134,-0.0049 0.021,0.04987 0.009,0.04183 -0.79248,-0.540002 -0.58881,-0.386959 -1.17095,-1.054404 -0.0924,-0.19875 -0.21957,-0.384795 -0.27729,-0.59625 -0.38828,-1.422566 0.8223,-2.651392 1.72856,-3.547014 0.71464,-0.538456 1.11241,-0.899634 1.94286,-1.271294 1.57576,-0.70522 3.33989,-0.768141 5.02504,-0.556109 1.05915,0.304644 2.24927,0.559525 2.95314,1.481394 z" />
    <path
       style="fill:#000000;fill-opacity:1;fill-rule:nonzero;stroke:none;stroke-width:0.264583"
       id="path382"
       d="m 43.493785,98.828904 c -0.06747,0.04427 -0.137446,0.08494 -0.202407,0.132813 -0.464703,0.34249 -0.88869,0.736176 -1.352486,1.081663 -0.473752,0.35289 -1.162452,0.83284 -1.638067,1.16787 -0.353685,0.28535 -0.709904,0.56758 -1.061051,0.85604 -1.564775,1.28545 -0.815927,0.72073 -2.457749,1.99475 -1.141251,0.88558 -2.314543,1.72402 -3.485277,2.56962 -2.740374,2.20536 0.856084,-0.72408 -1.411052,1.22177 -0.177773,0.15258 -0.372586,0.2841 -0.558879,0.42615 0,0 0.06764,0.0427 0.06764,0.0427 v 0 c 0.703573,-0.53652 1.463324,-0.97817 2.157156,-1.52956 2.315943,-1.8315 4.660863,-3.62561 7.008143,-5.41675 0.933112,-0.66708 1.911504,-1.27005 2.840371,-1.941707 0.194654,-0.140753 0.284451,-0.228148 0.449993,-0.377978 z" />
    <path
       style="fill:#000000;fill-opacity:1;fill-rule:nonzero;stroke:none;stroke-width:0.264583"
       id="path383"
       d="m 32.576833,104.6042 c -0.06648,0.0706 -0.139009,0.13586 -0.199448,0.21166 -0.07842,0.0983 -0.562319,0.79968 -0.596329,0.84811 -0.364328,0.51877 -0.693327,0.98755 -0.979159,1.55454 -0.0141,0.13578 -0.07161,0.27402 -0.04231,0.40735 0.180936,0.82323 1.862918,1.06171 2.581085,1.22413 0,0 -0.06348,-0.0487 -0.06348,-0.0487 v 0 c -0.629574,-0.18712 -0.489093,-0.13506 -1.175319,-0.38977 -0.353531,-0.13123 -0.721278,-0.14491 -0.857769,-0.53693 -0.04566,-0.13115 -0.01138,-0.27751 -0.01704,-0.41627 0.06602,-0.16519 0.113591,-0.33902 0.198065,-0.49559 0.418327,-0.77533 1.092255,-1.37588 1.611,-2.07691 z" />
    <path
       style="fill:#000000;fill-opacity:1;fill-rule:nonzero;stroke:none;stroke-width:0.264583"
       id="path384"
       d="m 37.978574,108.87482 c -1.155652,-0.62808 -2.430494,-0.92062 -3.706013,-1.19187 -2.194462,-0.25147 -4.44622,0.0606 -6.484181,0.92622 -0.400021,0.1699 -0.780134,0.38331 -1.170202,0.57496 -1.355755,0.83251 -3.441201,2.08938 -4.023677,3.6737 -0.0749,0.20373 -0.08379,0.42595 -0.125689,0.63893 0.0639,0.20714 0.08941,0.43031 0.191689,0.62144 0.226957,0.4241 0.701396,0.83922 1.094503,1.08858 1.358805,0.86192 1.978552,1.0826 3.448882,1.47938 1.637295,0.30804 3.315597,0.44311 4.980911,0.34014 1.150874,-0.0712 1.532586,-0.16464 2.658584,-0.35319 1.665531,-0.34605 3.283183,-0.93374 4.706818,-1.8774 0.789453,-0.52329 1.110912,-0.83996 1.808975,-1.44674 0.560001,-0.58004 1.136904,-1.14855 1.105998,-2.01749 -0.0083,-0.23368 -0.0491,-0.47332 -0.146016,-0.68612 -0.283345,-0.62215 -0.734602,-0.9329 -1.226124,-1.38164 -1.285007,-0.86458 -0.581078,-0.44358 -2.129107,-1.23357 0,0 0.06232,0.0502 0.06232,0.0502 v 0 c 0.868667,0.51345 0.40713,0.21959 1.373608,0.89862 0.428946,0.42116 0.778259,0.67921 1.02924,1.23804 0.479359,1.06733 -0.05406,1.91949 -0.723313,2.72698 -0.260529,0.24419 -0.503764,0.50825 -0.781592,0.73257 -1.660932,1.34099 -3.681815,2.09655 -5.750658,2.52729 -0.967637,0.17391 -1.605939,0.31432 -2.591469,0.38683 -1.675043,0.12324 -3.365701,-0.0367 -5.004536,-0.38592 -1.184671,-0.33601 -2.449556,-0.59136 -3.145193,-1.72615 -0.114169,-0.18624 -0.165613,-0.4043 -0.248419,-0.60644 0.01102,-0.22073 -0.01777,-0.44711 0.03307,-0.66218 0.395055,-1.67128 2.426824,-2.93336 3.748003,-3.79731 0.388191,-0.1912 0.767715,-0.4011 1.164571,-0.57359 2.047267,-0.88981 4.256143,-1.21345 6.470076,-0.90785 0.333245,0.0706 0.669372,0.12873 0.999741,0.21175 0.993527,0.24967 1.942129,0.63617 2.849137,1.10832 z" />
    <path
       style="fill:#000000;fill-opacity:1;fill-rule:nonzero;stroke:none;stroke-width:0.264583"
       id="path385"
       d="m 42.636836,98.277509 c 0.06577,0.07153 0.126037,0.148548 0.197313,0.214593 0.735553,0.681564 1.576184,1.258679 2.395035,1.832088 0.455128,0.3187 2.164749,1.48292 2.596124,1.77722 1.862941,1.24349 3.649419,2.59994 5.529511,3.81813 0.958191,0.62085 1.313582,0.81173 2.274234,1.36808 0.242585,0.14542 0.485169,0.29083 0.727755,0.43624 0,0 0.07462,0.0288 0.07462,0.0288 v 0 c -0.225251,-0.13871 -0.450501,-0.27742 -0.675749,-0.41612 -2.51175,-1.63447 -5.005091,-3.29438 -7.439964,-5.04261 -1.767676,-1.21341 -3.554217,-2.409887 -5.181023,-3.811692 z" />
    <path
       style="fill:#000000;fill-opacity:1;fill-rule:nonzero;stroke:none;stroke-width:0.264583"
       id="path386"
       d="m 61.543048,108.96937 c -1.347837,-1.05379 -2.608921,-1.00994 -4.237453,-0.91572 -1.101063,0.0786 -2.148496,0.33826 -3.135214,0.83591 -0.611188,0.30825 -1.023953,0.55787 -1.454023,1.09512 -0.169452,0.21169 -0.279085,0.46499 -0.418629,0.69748 -0.06143,0.25222 -0.169355,0.4975 -0.184285,0.75666 -0.07439,1.29114 0.919559,2.37211 1.978559,2.95254 0.514827,0.28218 1.067165,0.48974 1.600748,0.7346 0.427638,0.12093 0.847386,0.27439 1.282914,0.36279 2.027063,0.41141 4.198237,0.27904 6.220196,-0.0866 0.502253,-0.0908 0.995905,-0.22405 1.493856,-0.33608 1.588674,-0.48789 3.770016,-1.08658 4.28345,-2.93519 0.07639,-0.27505 0.0522,-0.56853 0.0783,-0.85279 -0.103121,-0.28496 -0.156599,-0.59315 -0.309361,-0.85486 -0.973773,-1.6683 -3.420589,-2.47134 -5.142161,-3.05509 0,0 0.06315,0.0491 0.06315,0.0491 v 0 c 1.569571,0.53299 3.709617,1.21029 4.579466,2.77299 0.142073,0.25524 0.200067,0.54891 0.300101,0.82336 -0.05023,0.70798 0.01733,1.02293 -0.397415,1.6498 -0.78129,1.1809 -2.569585,1.71157 -3.815196,2.15405 -1.144857,0.29084 -1.808102,0.4994 -2.995456,0.63399 -2.017983,0.22874 -4.077798,0.0489 -6.000766,-0.60883 -0.248235,-0.0851 -0.513411,-0.13123 -0.744704,-0.25516 -1.036328,-0.55525 -2.005045,-1.62331 -1.963873,-2.873 0.0084,-0.25535 0.110033,-0.49899 0.165047,-0.74849 0.125222,-0.2353 0.218041,-0.49096 0.375669,-0.70591 1.005618,-1.3713 2.86771,-1.75663 4.437306,-1.99235 0.35738,-0.0143 0.714489,-0.0465 1.072142,-0.043 0.820118,0.008 1.927521,0.18634 2.365097,0.54103 z" />
    <path
       style="fill:#000000;fill-opacity:1;fill-rule:nonzero;stroke:none;stroke-width:0.264583"
       id="path387"
       d="m 83.202668,97.515602 c -0.9119,0.713039 -1.645708,1.624187 -2.401946,2.492228 -1.29405,1.48536 -0.654563,0.73745 -1.963264,2.30039 -0.525489,0.68551 -1.589542,2.05043 -2.067557,2.76732 -0.299617,0.44935 -0.550902,0.92926 -0.838213,1.38657 -0.440875,0.70175 -0.905463,1.38841 -1.346991,2.08975 0,0 0.06913,0.0403 0.06913,0.0403 v 0 c 0.311322,-0.49452 1.042792,-1.66946 1.346819,-2.08946 0.319337,-0.44115 0.677143,-0.8532 1.008711,-1.28524 1.811081,-2.35985 0.257461,-0.43697 2.142551,-2.71988 0.761637,-0.87342 1.230847,-1.42731 2.015596,-2.26712 0.784698,-0.839758 1.626806,-1.628695 2.362139,-2.513671 z" />
    <path
       style="fill:#000000;fill-opacity:1;fill-rule:nonzero;stroke:none;stroke-width:0.264583"
       id="path388"
       d="m 74.563932,105.42433 c -0.552606,0.33368 -0.864581,0.92265 -1.156742,1.47763 -0.08158,0.15497 -0.186539,0.3048 -0.221547,0.4764 -0.02532,0.12415 0.03161,0.25145 0.04742,0.37718 0.544886,0.41359 0.574829,0.48797 1.473177,0.7126 0.186698,0.0467 0.384897,-0.006 0.577146,-0.0151 1.026112,-0.0469 0.16709,-0.0477 1.211807,-0.0253 0,0 -0.06462,-0.0472 -0.06462,-0.0472 v 0 c -0.694843,-0.0151 -0.644726,0.007 -1.39596,-0.11203 -0.263594,-0.0419 -0.51956,-0.15182 -0.78645,-0.15034 -0.053,2.6e-4 0.01643,0.16331 -0.03591,0.1549 -0.138303,-0.0222 -0.23936,-0.14558 -0.359039,-0.21836 -0.03947,-0.12359 -0.123608,-0.24113 -0.118409,-0.37077 0.02479,-0.61802 0.777115,-1.55643 1.158144,-2.05044 z" />
    <path
       style="fill:#000000;fill-opacity:1;fill-rule:nonzero;stroke:none;stroke-width:0.264583"
       id="path389"
       d="m 83.254545,108.18197 c -0.939845,-1.00733 -2.742941,-0.7383 -3.970589,-0.69391 -1.259068,0.10259 -2.521347,0.23334 -3.750606,0.53746 -0.64098,0.15857 -1.380562,0.38358 -1.960441,0.72018 -0.268214,0.15569 -0.500367,0.36653 -0.750549,0.54979 -0.730493,0.72156 -1.941147,2.06319 -1.859254,3.19067 0.01588,0.21876 0.114028,0.42358 0.17104,0.63537 0.132832,0.21125 0.241594,0.43971 0.398492,0.63375 0.366776,0.45361 0.849392,0.82887 1.364578,1.09771 0.54451,0.28413 1.097534,0.55826 1.674519,0.76877 0.609309,0.2223 1.711113,0.33315 2.3384,0.41697 0.662768,0.048 1.774743,0.15195 2.442703,0.10716 0.454596,-0.0305 0.904581,-0.11282 1.353452,-0.19094 1.516785,-0.26394 2.972578,-0.70994 4.440825,-1.16201 1.792739,-0.6962 3.698451,-1.47749 4.958156,-3.00522 0.152543,-0.185 0.269267,-0.39683 0.403903,-0.59524 0.06111,-0.21045 0.148902,-0.41493 0.183329,-0.63135 0.133729,-0.84063 -0.17817,-1.71158 -0.702333,-2.36245 -0.139306,-0.17298 -0.307743,-0.32033 -0.461611,-0.48049 -0.817499,-0.56049 -0.822344,-0.60668 -1.894343,-1.08365 -0.225946,-0.10054 -0.468976,-0.15715 -0.703786,-0.23475 -0.274233,-0.0906 -0.548889,-0.17998 -0.823333,-0.26996 0,0 0.0632,0.0491 0.0632,0.0491 v 0 c 0.893173,0.29336 1.803612,0.58419 2.536204,1.19742 0.149907,0.15243 0.314653,0.29157 0.44972,0.45729 0.501557,0.61538 0.772702,1.4634 0.670703,2.25717 -0.02696,0.2098 -0.103675,0.41015 -0.155515,0.61523 -0.112035,0.20509 -0.202401,0.4236 -0.336108,0.61527 -1.082291,1.55149 -3.041261,2.40934 -4.720193,3.10987 -0.47784,0.1601 -0.950624,0.33618 -1.433523,0.48031 -2.291112,0.68382 -4.488222,0.96933 -6.869565,0.67992 -3.729064,-0.5432 1.224892,0.2166 -2.356979,-0.45318 -0.104236,-0.0195 -0.221324,0.0464 -0.318106,0.003 -0.759849,-0.3402 -1.342406,-0.9559 -1.749399,-1.66381 -0.190526,-0.54904 -0.302715,-0.66561 -0.231195,-1.25388 0.128537,-1.05726 0.899048,-1.91739 1.588272,-2.66191 0.233114,-0.19048 0.448321,-0.40526 0.699339,-0.57144 1.636151,-1.08317 3.721865,-1.12671 5.602385,-1.31304 0.925743,-0.0353 1.218769,-0.0806 2.109468,0.006 0.24616,0.024 0.485666,0.1088 0.732895,0.11574 0.03833,0.001 0.02954,-0.0999 0.06731,-0.0933 0.14328,0.0251 0.278636,0.19187 0.372735,0.2909 z" />
    <path
       style="fill:#000000;fill-opacity:1;fill-rule:nonzero;stroke:none;stroke-width:0.264583"
       id="path390"
       d="m 102.96577,92.43166 c -0.88002,0.510336 -1.49783,1.311127 -2.12908,2.08635 -0.751,0.922296 -0.81545,1.004996 -1.580243,1.954525 -0.305824,0.37261 -0.610365,0.746273 -0.917467,1.117828 -0.895779,1.083775 -0.964012,1.132509 -1.807297,2.224955 -1.454224,1.883892 -0.04062,0.12492 -1.333169,1.714992 0,0 0.06864,0.0411 0.06864,0.0411 v 0 c 1.371721,-1.687436 2.904561,-3.238484 4.278931,-4.925237 1.168475,-1.393891 2.259125,-2.894635 3.674905,-4.05175 z" />
    <path
       style="fill:#000000;fill-opacity:1;fill-rule:nonzero;stroke:none;stroke-width:0.264583"
       id="path391"
       d="m 95.813156,98.269162 c -0.311009,0.361897 -0.453707,0.828405 -0.63333,1.261599 -0.134205,0.323662 -0.310494,0.614479 -0.286978,0.981079 0.0087,0.13597 0.08247,0.25972 0.123701,0.38958 0.344173,0.45068 0.874517,0.65821 1.408123,0.78485 0,0 -0.06315,-0.0491 -0.06315,-0.0491 v 0 c -0.575262,-0.23534 -0.437237,-0.11844 -0.841031,-0.50055 -0.05084,-0.12571 -0.131347,-0.24319 -0.152508,-0.37713 -0.130736,-0.827446 0.523176,-1.556447 0.840883,-2.256826 z" />
    <path
       style="fill:#000000;fill-opacity:1;fill-rule:nonzero;stroke:none;stroke-width:0.264583"
       id="path392"
       d="m 102.36581,102.14098 c -1.4729,-0.96359 -2.715645,-0.9362 -4.421247,-0.87598 -1.527011,0.18726 -3.1911,0.34402 -4.510169,1.22847 -0.738556,0.49521 -1.03513,0.94242 -1.596962,1.61032 -0.67859,1.05146 -1.30634,2.30404 -0.823801,3.57647 0.281122,0.74131 0.591076,0.91981 1.146336,1.45952 2.128711,1.4467 4.191572,1.97006 6.734355,1.91895 0.499626,-0.01 0.996834,-0.0723 1.495248,-0.10846 1.7007,-0.22631 3.41627,-0.57444 4.87959,-1.51717 0.74148,-0.47769 0.88751,-0.67748 1.49504,-1.27273 0.15958,-0.21664 0.34101,-0.41877 0.47873,-0.64992 0.51672,-0.86729 0.48993,-1.89784 0.16237,-2.82876 -0.0815,-0.23165 -0.20092,-0.44815 -0.30139,-0.67223 -0.84621,-1.4258 -2.04445,-1.98467 -3.40745,-2.81107 0,0 -0.0746,-0.0288 -0.0746,-0.0288 v 0 c 0.23619,0.14307 0.48171,0.27176 0.70857,0.4292 0.16097,0.11172 0.30255,0.2491 0.45177,0.37608 0.58324,0.49636 1.15409,1.00288 1.54084,1.67687 0.0939,0.21539 0.20813,0.42305 0.28183,0.64618 0.42506,1.28675 0.16907,2.31966 -0.61325,3.39066 -0.56603,0.61547 -0.6851,0.81312 -1.40733,1.29873 -1.41262,0.94982 -3.09185,1.33409 -4.75312,1.56326 -1.342668,0.0925 -1.623975,0.16747 -2.965281,0.0397 -1.651074,-0.15723 -1.127132,-0.18862 -2.640816,-0.54991 -0.1387,-0.0331 -0.294236,0.004 -0.424252,-0.0549 -0.312814,-0.14088 -0.587057,-0.3552 -0.880586,-0.5328 -0.575881,-0.54143 -0.837882,-0.67392 -1.15751,-1.4124 -0.378902,-0.87543 -0.272412,-1.84667 0.0584,-2.71939 0.124764,-0.32914 0.31451,-0.62984 0.471765,-0.94476 0.586317,-0.76409 0.72421,-1.06709 1.535227,-1.62434 0.296473,-0.20371 0.626427,-0.35587 0.954288,-0.50386 1.07578,-0.48558 2.218693,-0.7158 3.389747,-0.8191 0.372059,-0.0193 0.74364,-0.0615 1.116184,-0.0579 0.531045,0.005 1.209304,0.0989 1.730404,0.23301 0.19267,0.0496 0.37503,0.13313 0.56444,0.194 0.0396,0.0127 0.0844,0.008 0.12179,0.0265 0.0949,0.0459 0.18064,0.10889 0.27095,0.16334 z" />
    <path
       style="fill:#000000;fill-opacity:1;fill-rule:nonzero;stroke:none;stroke-width:0.264583"
       id="path393"
       d="m 104.9404,90.521561 c 0.0458,0.100434 0.0809,0.206436 0.13735,0.3013 0.30119,0.506357 0.67382,0.905338 1.06578,1.355108 0.32219,0.369711 0.64938,0.735068 0.97878,1.098373 0.80973,0.893101 1.63044,1.776204 2.44321,2.66655 2.12194,2.389415 4.25293,4.770488 6.38827,7.147868 0.19042,0.22245 0.38084,0.4449 0.57125,0.66734 0,0 0.0737,0.0312 0.0737,0.0312 v 0 c -0.19041,-0.22247 -0.38082,-0.44494 -0.57123,-0.66741 -2.03538,-2.42052 -4.18118,-4.74366 -6.28486,-7.104579 -1.49288,-1.669259 -3.08507,-3.305876 -4.24756,-5.231519 z" />
    <path
       style="fill:#000000;fill-opacity:1;fill-rule:nonzero;stroke:none;stroke-width:0.264583"
       id="path394"
       d="m 112.13234,103.77765 c 0.25971,0.41251 0.53472,0.82312 0.73416,1.26974 0.17679,0.48031 0.0833,0.25446 0.2758,0.67943 0.27356,0.22846 0.53428,0.50211 0.98592,0.36913 0.19192,-0.0565 0.20306,-0.34612 0.32592,-0.50402 0.49811,-0.64025 1.11875,-1.19115 1.70273,-1.74994 0.18919,-0.22284 0.56635,-0.61875 0.68256,-0.91835 0.048,-0.12372 0.0348,-0.2631 0.0522,-0.39465 0,0 -0.0687,-0.041 -0.0687,-0.041 v 0 c -0.13413,0.0619 -0.28301,0.0987 -0.4024,0.18569 -0.27208,0.19826 -0.55239,0.62992 -0.73901,0.88411 -0.39897,0.66815 -0.79608,1.40946 -1.38041,1.94027 -0.15759,0.14315 -0.45536,0.15354 -0.53316,0.35173 -0.0398,0.10143 0.5353,0.55308 0.11154,0.20704 -0.42777,-0.6698 -0.73413,-1.40742 -1.20785,-2.04578 z" />
    <path
       style="fill:#000000;fill-opacity:1;fill-rule:nonzero;stroke:none;stroke-width:0.264583"
       id="path395"
       d="m 121.21227,106.19031 c -0.0469,-0.0654 -0.0793,-0.14437 -0.14079,-0.19635 -1.19885,-1.01301 -3.66699,-0.79404 -5.11578,-0.73844 -1.03304,0.13414 -1.76011,0.17381 -2.75514,0.52798 -1.13128,0.40266 -2.22508,1.13239 -3.02057,2.03465 -0.21479,0.24362 -0.37845,0.52794 -0.56767,0.79191 -0.23912,0.60594 -0.46204,0.94313 -0.38835,1.61529 0.0946,0.86255 0.72524,1.67478 1.37982,2.19763 0.26513,0.21178 0.57102,0.36677 0.85653,0.55015 0.62963,0.30234 1.23733,0.6554 1.88889,0.907 0.35662,0.13771 0.7412,0.19155 1.1183,0.25424 1.63153,0.27124 3.2875,0.1297 4.91522,-0.0759 1.82639,-0.35795 3.62134,-1.03419 5.09946,-2.19002 0.25973,-0.2031 0.49402,-0.43678 0.74104,-0.65516 0.18046,-0.24317 0.38731,-0.46882 0.54137,-0.72951 0.49007,-0.82923 0.68466,-1.89566 0.37619,-2.82211 -0.0685,-0.20578 -0.18161,-0.39393 -0.27241,-0.5909 -0.75295,-1.20756 -2.01387,-1.84397 -3.26161,-2.4259 0,0 0.0627,0.0498 0.0627,0.0498 v 0 c 0.21462,0.0952 0.43812,0.17256 0.64386,0.28571 0.70117,0.38564 1.22271,1.03896 1.6662,1.68509 0.0876,0.18809 0.19341,0.36874 0.26285,0.56427 0.32643,0.91925 0.20666,1.94002 -0.26211,2.7909 -0.14261,0.25887 -0.3361,0.48625 -0.50416,0.72937 -0.23922,0.21885 -0.46251,0.45651 -0.71767,0.65655 -1.49495,1.172 -3.3289,1.76976 -5.17829,2.08428 -1.62838,0.2111 -3.26344,0.34716 -4.89388,0.0475 -1.26677,-0.23283 -0.80235,-0.51616 -1.25817,-0.18953 -0.28456,-0.17487 -0.58866,-0.32134 -0.85367,-0.52461 -0.89752,-0.68842 -1.60988,-1.77795 -1.45974,-2.94931 0.0368,-0.28724 0.15265,-0.55872 0.22897,-0.83807 0.15722,-0.27685 0.28437,-0.57311 0.47167,-0.83057 0.9555,-1.3134 2.53512,-2.18129 4.09475,-2.54513 0.44135,-0.10296 0.8976,-0.12602 1.3464,-0.18903 1.04543,-0.0493 1.56793,-0.10867 2.61176,-0.0209 0.35137,0.0296 0.69551,0.11998 1.0463,0.15581 0.4083,0.0417 0.50546,-0.12533 0.7826,0.34148 z" />
    <path
       style="fill:#000000;fill-opacity:1;fill-rule:nonzero;stroke:none;stroke-width:0.264583"
       id="path396"
       d="m 133.80425,93.464172 c -0.0794,0.04247 -0.16801,0.07102 -0.23824,0.127397 -0.4151,0.333246 -0.93643,1.025509 -1.26815,1.427163 -0.46441,0.562308 -1.02239,1.264877 -1.47349,1.828824 -0.95993,1.084508 -1.68452,2.337368 -2.49943,3.525854 0,0 0.069,0.0405 0.069,0.0405 v 0 c 0.81898,-1.19439 1.77715,-2.282925 2.66915,-3.423136 2.80729,-3.261254 -1.00286,1.159539 1.54791,-1.783681 0.092,-0.106169 0.80992,-0.954188 0.96646,-1.118264 0.15255,-0.159909 0.33556,-0.289166 0.4775,-0.459989 z" />
    <path
       style="fill:#000000;fill-opacity:1;fill-rule:nonzero;stroke:none;stroke-width:0.264583"
       id="path397"
       d="m 128.24133,98.027023 c -0.35743,0.350764 -0.60767,0.789734 -0.91657,1.179155 -0.405,0.51058 -0.57386,0.564121 -0.7549,1.205922 0.29869,0.45726 0.21417,0.41905 1.06236,0.67128 0.0961,0.0286 0.19124,-0.0696 0.29139,-0.075 0.16342,-0.009 0.32658,0.0219 0.48987,0.0328 0,0 -0.0644,-0.0475 -0.0644,-0.0475 v 0 c -0.16317,-0.0111 -0.32957,7.9e-4 -0.48952,-0.0333 -0.22494,-0.048 -0.42735,-0.19614 -0.65686,-0.21137 -0.0828,-0.005 0.24626,0.21812 0.1729,0.17926 -0.0836,-0.0443 -0.13662,-0.13081 -0.20493,-0.19622 0.0101,-0.11424 -8e-5,-0.23212 0.0302,-0.34272 0.0435,-0.15853 0.12144,-0.30563 0.18872,-0.455609 0.0813,-0.181207 0.15613,-0.366448 0.25685,-0.537617 0.25118,-0.426881 0.60124,-0.790131 0.88944,-1.190601 z" />
    <path
       style="fill:#000000;fill-opacity:1;fill-rule:nonzero;stroke:none;stroke-width:0.264583"
       id="path398"
       d="m 133.68987,101.01005 c -1.09254,-0.79108 -2.48299,-0.72817 -3.76356,-0.668 -0.32903,0.0483 -0.66469,0.0632 -0.98709,0.14477 -1.30921,0.33109 -2.45174,1.25015 -3.0569,2.46343 -0.13309,0.26684 -0.20051,0.56166 -0.30076,0.8425 -0.007,0.30565 -0.0521,0.61272 -0.0217,0.91695 0.12578,1.26156 0.89653,2.45929 1.883,3.23006 0.27542,0.2152 0.59044,0.37423 0.88566,0.56134 0.59361,0.28301 1.16764,0.61141 1.78083,0.84904 0.87672,0.33974 2.33025,0.46838 3.26761,0.40796 0.947,-0.061 1.16585,-0.18914 2.06222,-0.47123 1.01471,-0.39572 1.93954,-0.96068 2.78994,-1.63675 0.40897,-0.32514 0.96218,-0.79024 1.2497,-1.24815 0.1329,-0.21164 0.19648,-0.45957 0.29472,-0.68936 0.19777,-0.61968 0.39672,-1.31436 0.13617,-1.95555 -0.29663,-0.72999 -0.96152,-1.13567 -1.58325,-1.54395 -1.23647,-0.79562 -2.61493,-1.23723 -4.0062,-1.66071 0,0 0.0632,0.0491 0.0632,0.0491 v 0 c 1.14585,0.41265 2.27041,0.87007 3.3728,1.3891 0.59922,0.38987 1.23867,0.78091 1.54195,1.47103 0.27701,0.63034 0.1345,1.30984 -0.0958,1.92168 -0.29477,0.4016 -0.60999,0.85616 -0.95426,1.21666 -0.96935,1.01506 -2.22329,1.68503 -3.51096,2.20655 -0.34841,0.093 -0.69099,0.2115 -1.04523,0.27898 -0.69365,0.13214 -1.42215,0.1595 -2.12531,0.11077 -1.61318,-0.1118 -0.5789,-0.11772 -2.16194,-0.40081 -0.0782,-0.014 -0.1576,0.0208 -0.2364,0.0311 -0.29795,-0.18172 -0.61471,-0.33568 -0.89383,-0.54517 -1.01224,-0.75972 -1.82704,-1.95703 -2.02481,-3.22073 -0.0474,-0.30313 -0.0207,-0.61329 -0.0311,-0.91993 0.18714,-0.78186 0.17375,-1.02218 0.63175,-1.71338 0.55051,-0.83079 1.38747,-1.46151 2.33534,-1.76796 0.29945,-0.0968 0.61728,-0.12315 0.92592,-0.18473 0.30494,-0.0261 0.60885,-0.0713 0.91484,-0.0783 0.86683,-0.0198 1.81439,0.11518 2.56393,0.57243 z" />
    <path
       style="fill:#000000;fill-opacity:1;fill-rule:nonzero;stroke:none;stroke-width:0.264583"
       id="path399"
       d="m 132.37813,92.505788 c 1.70091,0.717992 3.11066,1.906754 4.54384,3.041912 2.19699,1.815611 4.52098,3.4675 6.85844,5.09517 0.22676,0.16446 0.45351,0.32891 0.68026,0.49336 0,0 0.0744,0.0296 0.0744,0.0296 v 0 c -0.20053,-0.15408 -0.40105,-0.30816 -0.60158,-0.46224 -2.17577,-1.700911 -4.50192,-3.204742 -6.61,-4.99487 -0.58825,-0.46945 -1.63448,-1.32315 -2.2692,-1.759151 -0.98524,-0.676791 -2.02504,-1.27658 -3.10505,-1.787999 z" />
    <path
       style="fill:#000000;fill-opacity:1;fill-rule:nonzero;stroke:none;stroke-width:0.264583"
       id="path400"
       d="m 150.11296,100.88645 c -0.0584,-0.28072 -0.17687,-0.48872 -0.4529,-0.61109 -0.26773,-0.11868 -0.5351,-0.25866 -0.82451,-0.303377 -0.41402,-0.06397 -1.3339,0.249897 -1.6454,0.336487 -1.35226,0.48267 -2.67861,1.12801 -3.6837,2.18328 -0.46822,0.4916 -0.57179,0.75738 -0.88767,1.32731 -0.043,0.21124 -0.12057,0.41831 -0.12916,0.63372 -0.0515,1.2929 1.40337,1.88166 2.354,2.2987 0.24449,0.10726 0.5184,0.12803 0.7776,0.19204 1.69725,0.25687 3.44386,0.0851 5.1104,-0.3012 0.34073,-0.079 0.67431,-0.18613 1.01147,-0.27919 0.29147,-0.11028 0.59383,-0.19521 0.87441,-0.33083 0.91572,-0.44263 1.72136,-1.21821 2.26343,-2.07297 0.11357,-0.17907 0.19913,-0.37445 0.29869,-0.56166 0.0422,-0.18842 0.11157,-0.37275 0.12662,-0.56525 0.0993,-1.2707 -1.16327,-1.95234 -2.05601,-2.56754 0,0 -0.0744,-0.0293 -0.0744,-0.0293 v 0 c 0.19852,0.13643 0.41259,0.25262 0.59557,0.40928 0.12412,0.10627 0.22108,0.24149 0.31808,0.37298 0.44923,0.60899 0.64243,1.26603 0.44299,2.01149 -0.0876,0.18941 -0.15628,0.38877 -0.26279,0.56822 -0.69475,1.17058 -1.93429,1.8453 -3.15627,2.3346 -0.32515,0.0988 -0.64594,0.21324 -0.97545,0.29631 -1.75207,0.4417 -3.56406,0.45656 -5.33102,0.0899 -0.26807,-0.0785 -0.52496,-0.24215 -0.80421,-0.23551 -0.12889,0.003 0.39769,0.32833 0.29718,0.24757 -0.15041,-0.12087 -0.31706,-0.22519 -0.44693,-0.36791 -0.4442,-0.48813 -0.53314,-1.0786 -0.47083,-1.71344 0.0797,-0.23286 0.12662,-0.47968 0.23916,-0.69858 0.12843,-0.24983 0.29991,-0.47671 0.47711,-0.69469 0.90147,-1.10887 2.15627,-1.79154 3.47572,-2.28435 0.3117,-0.0909 0.6234,-0.1818 0.9351,-0.2727 0.22997,-0.0172 0.46528,7.9e-4 0.68991,-0.0515 0.046,-0.0107 0.0209,-0.13116 0.0677,-0.12455 0.29077,0.041 0.46627,0.34001 0.50964,0.5936 z" />
  </g>
</svg>
